# xmcd CD database file
#
# Track frame offsets:
#	750
#	17505
#	35595
#	51002
#	73165
#	92745
#	111195
#	129370
#	144550
#	159915
#	174916
#	190012
#	207654
#	225735
#	243879
#	261817
#	279382
#	296957
#	312957
#	329742
#
# Disc length: 4599 seconds
#
# Revision: 0
# Processed by: cddbd v1.4PL0 Copyright (c) Steve Scherf et al.
# Submitted via: Feurio! 1.65 - http://www.feurio.com
#
DISCID=2411ed14
DTITLE=Various Artist - BODY and SOUL CD1
DYEAR=1900
DGENRE=
TTITLE0=GINUWINE  - JUST BECAUSE (Album Version)
TTITLE1=MARY J. BLIGE  - FAMILY AFFAIR (Edit)
TTITLE2=MIS-TEEQ  - ONE NIGHT STAND (Stargate Radio Edit)
TTITLE3=JENNIFER LOPEZ  - I'M REAL (Album Version)
TTITLE4=BLAQUE  - CAN'T GET IT BACK (Album Version)
TTITLE5=NEXT  - WIFEY (Clean Version - Radio Mix)
TTITLE6=OUTKAST  - SO FRESH, SO CLEAN (Clean Version - Radio Mix)
TTITLE7=PRECIOUS  - IT'S GONNA BE MY WAY
TTITLE8=LUCY PEARL  - DANCE TONIGHT (Linslee Campbell Mix)
TTITLE9=JAMIROQUAI  - YOU GIVE ME SOMETHING (Commercial Edit)
TTITLE10=ANASTACIA  - PAID MY DUES (Album Version)
TTITLE11=NIVEA  - DON'T MESS WITH THE RADIO
TTITLE12=TONI BRAXTON  - HE WASN'T MAN ENOUGH (Radio Edit)
TTITLE13=KANDI  - DON'T THINK I'M NOT (LP Version)
TTITLE14=RUFF ENDZ  - NO MORE (Radio Edit)
TTITLE15=STEPHEN GALLOWAY  - DARKBELL (Radio Cut)
TTITLE16=CRAIG DAVID  - 7 DAYS (Radio Edit)
TTITLE17=MONTELL JORDON  - GET IT ON TONITE (Mainstream Radio Edit)
TTITLE18=MARY MARY FEATURING B.B. JAY  - I SINGS (Radio Edit Without Rap)
TTITLE19=BARRY WHITE  - YOU'RE THE FIRST, THE LAST, MY EVERYTHING (Album 
TTITLE19=Version)
EXTD=
EXTT0=
EXTT1=
EXTT2=
EXTT3=
EXTT4=
EXTT5=
EXTT6=
EXTT7=
EXTT8=
EXTT9=
EXTT10=
EXTT11=
EXTT12=
EXTT13=
EXTT14=
EXTT15=
EXTT16=
EXTT17=
EXTT18=
EXTT19=
PLAYORDER=
